HIERARCHY
ROOT Hips
{
	OFFSET 38.582500 -14.901615 92.646500
	CHANNELS 6 Xposition Yposition Zposition Xrotation Yrotation Zrotation
	JOINT spine
	{
		OFFSET 0.000000 -0.429886 7.475601
		CHANNELS 3 Xrotation Yrotation Zrotation
		JOINT spine1
		{
			OFFSET 0.000000 -0.000002 9.923012
			CHANNELS 3 Xrotation Yrotation Zrotation
			JOINT spine2
			{
				OFFSET 0.000000 -0.000001 9.508041
				CHANNELS 3 Xrotation Yrotation Zrotation
				JOINT Neck
				{
					OFFSET 0.000000 -1.163844 24.411095
					CHANNELS 3 Xrotation Yrotation Zrotation
					JOINT Head
					{
						OFFSET 0.000000 -0.000002 7.375229
						CHANNELS 3 Xrotation Yrotation Zrotation
						End Site
						{
							OFFSET 0.000000 5.887407 17.852203
						}
					}
				}
				JOINT RightShoulder
				{
					OFFSET -4.003559 0.557467 10.267906
					CHANNELS 3 Xrotation Yrotation Zrotation
					JOINT RightArm
					{
						OFFSET 0.000000 -0.000002 13.467300
						CHANNELS 3 Xrotation Yrotation Zrotation
						JOINT RightArmRoll
						{
							OFFSET 0.000000 -0.000002 6.798569
							CHANNELS 3 Xrotation Yrotation Zrotation
							JOINT RightForeArm
							{
								OFFSET 0.000000 -0.000003 19.801804
								CHANNELS 3 Xrotation Yrotation Zrotation
								JOINT RightForeArmRoll
								{
									OFFSET 0.000000 -0.000001 7.629044
									CHANNELS 3 Xrotation Yrotation Zrotation
									JOINT RightHand
									{
										OFFSET 0.000000 -0.000003 15.309799
										CHANNELS 3 Xrotation Yrotation Zrotation
										End Site
										{
											OFFSET 0.000000 0.000000 0.100006
										}
									}
								}
							}
						}
					}
				}
				JOINT LeftShoulder
				{
					OFFSET 4.003559 0.557467 10.267906
					CHANNELS 3 Xrotation Yrotation Zrotation
					JOINT LeftArm
					{
						OFFSET 0.000000 -0.000002 13.467300
						CHANNELS 3 Xrotation Yrotation Zrotation
						JOINT LeftArmRoll
						{
							OFFSET 0.000000 -0.000002 6.798569
							CHANNELS 3 Xrotation Yrotation Zrotation
							JOINT LeftForeArm
							{
								OFFSET 0.000000 -0.000003 19.801804
								CHANNELS 3 Xrotation Yrotation Zrotation
								JOINT LeftForeArmRoll
								{
									OFFSET 0.000000 -0.000001 7.629044
									CHANNELS 3 Xrotation Yrotation Zrotation
									JOINT LeftHand
									{
										OFFSET 0.000000 -0.000003 15.309799
										CHANNELS 3 Xrotation Yrotation Zrotation
										End Site
										{
											OFFSET 0.000000 0.000000 0.100006
										}
									}
								}
							}
						}
					}
				}
			}
		}
	}
	JOINT RightUpLeg
	{
		OFFSET -6.626091 1.019270 -1.215050
		CHANNELS 3 Xrotation Yrotation Zrotation
		JOINT RightUpLegRoll
		{
			OFFSET 0.000000 -0.000003 17.951698
			CHANNELS 3 Xrotation Yrotation Zrotation
			JOINT RightLeg
			{
				OFFSET 0.000000 0.000004 -22.230400
				CHANNELS 3 Xrotation Yrotation Zrotation
				JOINT RightLegRoll
				{
					OFFSET 0.000000 -0.000004 22.303200
					CHANNELS 3 Xrotation Yrotation Zrotation
					JOINT RightFoot
					{
						OFFSET 0.000000 -0.000003 18.563599
						CHANNELS 3 Xrotation Yrotation Zrotation
						JOINT RightToeBase
						{
							OFFSET 0.000000 -0.000003 15.518295
							CHANNELS 3 Xrotation Yrotation Zrotation
							End Site
							{
								OFFSET 0.006578 0.866262 7.515381
							}
						}
					}
				}
			}
		}
	}
	JOINT LeftUpLeg
	{
		OFFSET 6.626091 1.019270 -1.215050
		CHANNELS 3 Xrotation Yrotation Zrotation
		JOINT LeftUpLegRoll
		{
			OFFSET 0.000000 -0.000003 17.951797
			CHANNELS 3 Xrotation Yrotation Zrotation
			JOINT LeftLeg
			{
				OFFSET 0.000000 -0.000003 22.230309
				CHANNELS 3 Xrotation Yrotation Zrotation
				JOINT LeftLegRoll
				{
					OFFSET 0.000000 -0.000004 22.509308
					CHANNELS 3 Xrotation Yrotation Zrotation
					JOINT LeftFoot
					{
						OFFSET 0.000000 -0.000003 18.357498
						CHANNELS 3 Xrotation Yrotation Zrotation
						JOINT LeftToeBase
						{
							OFFSET 0.000000 -0.000003 15.518295
							CHANNELS 3 Xrotation Yrotation Zrotation
							End Site
							{
								OFFSET -0.029476 0.866262 7.515381
							}
						}
					}
				}
			}
		}
	}
}
MOTION
Frames: 5
Frame Time: 0.041667
42.363396 -12.878515 93.288589 2.727947 -1.024726 68.752725 -0.375562 0.155709 0.339378 3.250857 0.306624 0.678204 4.895893 0.314642 0.674565 -10.934451 19.139496 -0.463378 10.330269 -17.042939 -2.135927 -7.766344 -50.094192 -8.475594 -47.230861 -172.109183 -47.573835 -0.000062 0.000004 0.000007 15.292315 -8.647286 -0.999421 -0.000047 0.000025 -2.999990 -5.000175 -7.998946 0.000150 -6.967458 75.224814 9.422588 60.142759 35.482686 -51.942486 0.000008 -0.000005 0.000004 47.539749 15.477716 -4.422796 0.000002 -0.000006 3.000011 -5.000165 7.998742 -0.000157 -0.313018 -179.932004 -0.841488 -179.999991 0.000005 -1.089998 170.249295 -1.978035 -0.612851 0.000018 0.000002 0.204527 71.406220 6.814634 2.166839 26.245483 -7.367156 -0.464762 -10.999288 179.912620 6.089761 -0.000005 -0.000004 -0.963409 -12.468804 -1.673596 0.248402 -0.000002 -0.000002 0.000195 67.136798 -6.974725 -2.036530 25.456858 7.363802 0.000012 
42.327900 -12.911316 93.277603 2.740830 -1.022716 68.835562 -0.373793 0.156283 0.339839 3.254397 0.307602 0.679117 4.899424 0.315638 0.675456 -10.900657 19.116274 -0.453463 10.282753 -17.008356 -2.127473 -7.769221 -50.021672 -8.473289 -47.176882 -172.028300 -47.771801 -0.000063 0.000004 0.000007 15.487215 -8.807429 -0.958908 -0.000049 0.000024 -2.999989 -5.000169 -7.998944 0.000150 -7.015572 75.135182 9.468649 60.156297 35.484725 -51.985000 0.000007 -0.000009 0.000004 47.229505 15.568194 -4.445077 0.000003 -0.000005 3.000012 -5.000168 7.998741 -0.000159 -0.314102 -179.948997 -0.849186 -179.999991 0.000005 -1.089997 170.265087 -1.983056 -0.611153 0.000018 0.000002 0.204496 71.404970 6.814457 2.167483 26.238312 -7.367157 -0.460466 -11.063984 179.937195 6.060452 -0.000006 -0.000004 -0.962656 -12.560573 -1.615147 0.255584 -0.000002 -0.000003 -0.004258 67.154372 -6.973486 -2.039064 25.456858 7.363805 0.000013 
42.269901 -12.928215 93.274391 2.753755 -1.020052 68.918863 -0.371945 0.156810 0.340256 3.258088 0.308456 0.679944 4.903115 0.316507 0.676268 -10.869468 19.093780 -0.442492 10.236518 -16.972998 -2.118567 -7.772302 -49.948050 -8.471108 -47.120707 -171.949001 -47.957825 -0.000066 0.000004 0.000007 15.687375 -8.962412 -0.918573 -0.000048 0.000025 -2.999990 -5.000172 -7.998944 0.000151 -7.061411 75.043575 9.512155 60.170661 35.487703 -52.029816 0.000007 -0.000004 0.000001 46.920128 15.658403 -4.465516 0.000002 -0.000005 3.000013 -5.000169 7.998741 -0.000159 -0.315674 -179.966004 -0.856939 -179.999991 0.000005 -1.089995 170.281397 -1.989064 -0.610607 0.000018 0.000002 0.204485 71.403624 6.814249 2.168136 26.230933 -7.367140 -0.455940 -11.131480 179.962712 6.031697 -0.000005 -0.000004 -0.961904 -12.655052 -1.557364 0.262967 -0.000002 -0.000002 -0.008769 67.172178 -6.972341 -2.041402 25.456858 7.363805 0.000013 
42.244801 -12.957315 93.264389 2.766656 -1.016893 69.002539 -0.370043 0.157300 0.340649 3.261878 0.309220 0.680717 4.906915 0.317286 0.677019 -10.840237 19.071848 -0.430730 10.191208 -16.937186 -2.109282 -7.775558 -49.873813 -8.469085 -47.063306 -171.869361 -48.137015 -0.000065 0.000004 0.000007 15.891219 -9.113731 -0.878064 -0.000048 0.000024 -2.999990 -5.000171 -7.998943 0.000149 -7.105538 74.950603 9.553683 60.185523 35.491360 -52.076197 0.000006 -0.000008 0.000005 46.611287 15.748739 -4.484309 0.000001 -0.000005 3.000009 -5.000170 7.998741 -0.000154 -0.317585 -179.982001 -0.864725 -179.999991 0.000005 -1.089999 170.298049 -1.994093 -0.609858 0.000018 0.000002 0.204482 71.402074 6.814080 2.168900 26.223150 -7.367145 -0.451293 -11.200776 179.989200 6.003250 -0.000004 -0.000004 -0.961159 -12.751545 -1.500056 0.270549 -0.000002 -0.000002 -0.013324 67.190190 -6.971173 -2.043826 25.456854 7.363807 0.000013 
42.181499 -12.974513 93.260689 2.779456 -1.013446 69.086598 -0.368110 0.157772 0.341023 3.265738 0.309934 0.681456 4.910766 0.318015 0.677742 -10.811996 19.050344 -0.418525 10.146433 -16.901127 -2.099771 -7.778885 -49.799165 -8.467111 -47.005116 -171.790131 -48.311390 -0.000064 0.000004 0.000007 16.097398 -9.262869 -0.836979 -0.000048 0.000026 -2.999990 -5.000171 -7.998944 0.000150 -7.148389 74.856735 9.593796 60.200816 35.495363 -52.123598 0.000007 -0.000005 0.000004 46.302792 15.839268 -4.501808 0.000002 -0.000004 3.000014 -5.000168 7.998741 -0.000159 -0.319691 -179.998994 -0.872530 -179.999991 0.000005 -1.089997 170.314906 -2.000102 -0.609286 0.000018 0.000002 0.204486 71.400509 6.813906 2.169469 26.215376 -7.367137 -0.446553 -11.271075 180.014717 5.975248 -0.000005 -0.000004 -0.960409 -12.849246 -1.443033 0.278324 -0.000002 -0.000002 -0.017898 67.208406 -6.970026 -2.046136 25.456856 7.363804 0.000013 
